<?xml version="1.0" encoding="UTF-8"?>
<svg width="203px" height="198px" viewBox="0 0 203 198" version="1.1" xmlns="http://www.w3.org/2000/svg" xmlns:xlink="http://www.w3.org/1999/xlink">
    <!-- Generator: Sketch 52.5 (67469) - http://www.bohemiancoding.com/sketch -->
    <title>items-visuels</title>
    <desc>Created with Sketch.</desc>
    <defs>
        <rect id="path-1" x="0.762247622" y="0.558226624" width="24.137931" height="30.1142857"></rect>
        <rect id="path-3" x="0.762247622" y="0.558226624" width="24.137931" height="30.1142857"></rect>
    </defs>
    <g id="items-visuels" stroke="none" stroke-width="1" fill="none" fill-rule="evenodd">
        <g id="Group-Copy" transform="translate(94.000000, 31.000000)">
            <path d="M20,54 C20,54 40,31.050501 40,20.0030961 C40,8.95569118 31.045695,0 20,0 C8.954305,0 0,8.95569118 0,20.0030961 C0,31.050501 20,54 20,54 Z" id="Oval" fill="#CF633C"></path>
            <circle id="Oval-Copy-9" fill="#FFFFFF" cx="20" cy="20" r="10"></circle>
        </g>
        <g id="pdf-icone-copy" transform="translate(36.000000, 42.000000)">
            <mask id="mask-2" fill="white">
                <use xlink:href="#path-1"></use>
            </mask>
            <g id="Mask"></g>
            <g id="pdf-icone" mask="url(#mask-2)" fill="#CF633C">
                <g transform="translate(0.762248, 0.000000)">
                    <path d="M0,0.458817193 L0,29.947118 L22.8982095,29.947118 L22.8982095,6.95392404 L16.5512492,0.458817193 L0,0.458817193 Z M1.08504321,1.55605629 L15.7824961,1.55605629 L15.7824961,7.86518111 L21.8137088,7.86518111 L21.8137088,28.8498789 L1.08504321,28.8498789 L1.08504321,1.55605629 Z M16.8669968,2.34277673 L21.1914365,6.76794201 L16.8669968,6.76794201 L16.8669968,2.34277673 Z" id="Fill-1"></path>
                    <path d="M4.76003033,23.5601989 C4.80180449,23.6139636 4.84303613,23.6671797 4.88426777,23.721493 C5.51467788,23.6529156 6.00674498,23.2217006 6.24165683,22.379021 C5.66007367,22.8426045 5.21032326,23.2014017 4.76003033,23.5601989 M15.9028816,19.0318931 C16.4459457,19.657868 17.5098306,19.751682 18.0463845,19.1361309 C17.3655199,19.1026651 16.6841127,19.0697479 15.9028816,19.0318931 M10.4364339,12.5077095 L10.6740584,12.4693061 C10.6740584,11.8356505 10.6876214,11.2014463 10.6599528,10.568888 C10.6556126,10.4646503 10.46356,10.2825086 10.3702463,10.2907379 C10.2574018,10.3000644 10.0843374,10.4602613 10.0653491,10.5771173 C9.95141958,11.2722182 10.0968154,11.9168462 10.4364339,12.5077095 M10.8492928,16.2092456 C10.3989999,17.3256863 9.96986532,18.3872652 9.47345805,19.6178188 C10.6670056,19.22391 11.6820635,18.8887034 12.7643941,18.5315521 C12.1773857,17.7788461 11.656565,17.108433 11.1314041,16.4413116 C11.0798645,16.3760259 11.0017414,16.332685 10.8492928,16.2092456 M17.3552119,20.7150579 C16.2077788,20.7989967 15.2670463,20.3864348 14.4006393,19.7944743 C14.030097,19.5415607 13.6969888,19.4740805 13.2797896,19.6172702 C11.9251132,20.0846941 10.553076,20.5038394 9.21304767,21.0113125 C8.85335585,21.1473701 8.5381508,21.4924518 8.28425068,21.8095539 C7.67771153,22.5639058 7.15634826,23.3890296 6.53082085,24.1247284 C6.10439887,24.6261667 5.54614413,24.9778318 4.82513292,24.9322964 C3.78294891,24.866462 3.23120444,23.8509673 3.84696646,23.0000583 C4.18224481,22.5375721 4.64989844,22.1458577 5.12297728,21.8172346 C5.72951644,21.3958948 6.37728724,21.0140556 7.05218411,20.7205441 C7.63647989,20.465436 7.99400162,20.0748189 8.2218607,19.5026087 C8.78282804,18.0970454 9.38122937,16.7057463 9.90259264,15.2859189 C10.0170647,14.9737543 9.92646359,14.5507687 9.83966013,14.2023952 C9.55700637,13.0716904 9.12787178,11.9673192 8.95480739,10.8218016 C8.81212421,9.87598148 9.4246311,9.21105459 10.2177977,9.10955997 C11.0191021,9.00696811 11.707562,9.47658645 11.7672394,10.5096371 C11.832342,11.6375989 11.644087,12.7918944 11.4650549,13.9187589 C11.3880168,14.4053845 11.3755388,14.8080712 11.6771808,15.187716 C12.3764912,16.0704448 13.0606109,16.9674378 13.8065781,17.8084715 C13.9812701,18.005426 14.3773108,18.0833299 14.668645,18.0772951 C15.6912982,18.0564476 16.7161215,17.892959 17.732807,17.9379458 C18.7673957,17.9840298 19.3560316,18.6368871 19.3061196,19.4378716 C19.2562077,20.2476341 18.6903576,20.678849 17.6281003,20.7145093 C17.5163409,20.7183496 17.4040389,20.7150579 17.3552119,20.7150579" id="Fill-2"></path>
                </g>
            </g>
        </g>
        <g id="pdf-icone-copy-2" transform="translate(36.000000, 102.000000)">
            <mask id="mask-4" fill="white">
                <use xlink:href="#path-3"></use>
            </mask>
            <g id="Mask"></g>
            <g id="pdf-icone" mask="url(#mask-4)">
                <g transform="translate(0.762248, 0.000000)">
                    <path d="M0,0.458817193 L0,29.947118 L22.8982095,29.947118 L22.8982095,6.95392404 L16.5512492,0.458817193 L0,0.458817193 Z M1.08504321,1.55605629 L15.7824961,1.55605629 L15.7824961,7.86518111 L21.8137088,7.86518111 L21.8137088,28.8498789 L1.08504321,28.8498789 L1.08504321,1.55605629 Z M16.8669968,2.34277673 L21.1914365,6.76794201 L16.8669968,6.76794201 L16.8669968,2.34277673 Z" id="Fill-1" fill="#02B9C8"></path>
                    <path d="M4.76003033,23.5601989 C4.80180449,23.6139636 4.84303613,23.6671797 4.88426777,23.721493 C5.51467788,23.6529156 6.00674498,23.2217006 6.24165683,22.379021 C5.66007367,22.8426045 5.21032326,23.2014017 4.76003033,23.5601989 M15.9028816,19.0318931 C16.4459457,19.657868 17.5098306,19.751682 18.0463845,19.1361309 C17.3655199,19.1026651 16.6841127,19.0697479 15.9028816,19.0318931 M10.4364339,12.5077095 L10.6740584,12.4693061 C10.6740584,11.8356505 10.6876214,11.2014463 10.6599528,10.568888 C10.6556126,10.4646503 10.46356,10.2825086 10.3702463,10.2907379 C10.2574018,10.3000644 10.0843374,10.4602613 10.0653491,10.5771173 C9.95141958,11.2722182 10.0968154,11.9168462 10.4364339,12.5077095 M10.8492928,16.2092456 C10.3989999,17.3256863 9.96986532,18.3872652 9.47345805,19.6178188 C10.6670056,19.22391 11.6820635,18.8887034 12.7643941,18.5315521 C12.1773857,17.7788461 11.656565,17.108433 11.1314041,16.4413116 C11.0798645,16.3760259 11.0017414,16.332685 10.8492928,16.2092456 M17.3552119,20.7150579 C16.2077788,20.7989967 15.2670463,20.3864348 14.4006393,19.7944743 C14.030097,19.5415607 13.6969888,19.4740805 13.2797896,19.6172702 C11.9251132,20.0846941 10.553076,20.5038394 9.21304767,21.0113125 C8.85335585,21.1473701 8.5381508,21.4924518 8.28425068,21.8095539 C7.67771153,22.5639058 7.15634826,23.3890296 6.53082085,24.1247284 C6.10439887,24.6261667 5.54614413,24.9778318 4.82513292,24.9322964 C3.78294891,24.866462 3.23120444,23.8509673 3.84696646,23.0000583 C4.18224481,22.5375721 4.64989844,22.1458577 5.12297728,21.8172346 C5.72951644,21.3958948 6.37728724,21.0140556 7.05218411,20.7205441 C7.63647989,20.465436 7.99400162,20.0748189 8.2218607,19.5026087 C8.78282804,18.0970454 9.38122937,16.7057463 9.90259264,15.2859189 C10.0170647,14.9737543 9.92646359,14.5507687 9.83966013,14.2023952 C9.55700637,13.0716904 9.12787178,11.9673192 8.95480739,10.8218016 C8.81212421,9.87598148 9.4246311,9.21105459 10.2177977,9.10955997 C11.0191021,9.00696811 11.707562,9.47658645 11.7672394,10.5096371 C11.832342,11.6375989 11.644087,12.7918944 11.4650549,13.9187589 C11.3880168,14.4053845 11.3755388,14.8080712 11.6771808,15.187716 C12.3764912,16.0704448 13.0606109,16.9674378 13.8065781,17.8084715 C13.9812701,18.005426 14.3773108,18.0833299 14.668645,18.0772951 C15.6912982,18.0564476 16.7161215,17.892959 17.732807,17.9379458 C18.7673957,17.9840298 19.3560316,18.6368871 19.3061196,19.4378716 C19.2562077,20.2476341 18.6903576,20.678849 17.6281003,20.7145093 C17.5163409,20.7183496 17.4040389,20.7150579 17.3552119,20.7150579" id="Fill-2" fill="#02ADBB"></path>
                </g>
            </g>
        </g>
        <g id="upload-icon" transform="translate(95.000000, 103.000000)" fill="#02ADBB">
            <path d="M13.9182345,3.92798404 C13.7849625,4.05521809 13.7042268,4.12953989 13.6265563,4.20698138 C12.0876751,5.74235372 10.5488552,7.2778484 9.01058697,8.81389362 C8.6819433,9.14207181 8.29303908,9.33665426 7.83001992,9.20630053 C7.06300077,8.99043085 6.77542989,8.05575 7.26284751,7.42502394 C7.33733027,7.32861968 7.42634176,7.24285904 7.51228812,7.155875 C9.69349885,4.94946543 11.8748935,2.7433617 14.0570238,0.537808511 C14.7119203,-0.124175532 15.3704337,-0.129069149 16.0201195,0.523494681 C18.2163494,2.72935372 20.4123954,4.93545745 22.6070314,7.14284574 C23.0035985,7.54167553 23.0979433,8.01935372 22.8826483,8.48320745 C22.6838437,8.91164362 22.24461,9.17394149 21.7684107,9.14427394 C21.4342498,9.12347606 21.1753073,8.96009043 20.9435831,8.72648138 C19.4844567,7.25570479 18.0204874,5.78976064 16.5602575,4.32008511 C16.4743724,4.2336516 16.407246,4.12880585 16.331292,4.03246277 C16.2989854,4.04488032 16.2667402,4.0572367 16.2343724,4.06959309 C16.2287326,4.19187234 16.2182498,4.3141516 16.2181885,4.43643085 C16.2173916,10.1353537 16.2176368,15.8342154 16.2167785,21.5331383 C16.2167172,21.685758 16.2173916,21.8397846 16.1986943,21.990875 C16.1258054,22.579516 15.6340966,22.9923537 15.0320429,22.9788963 C14.4445793,22.9658059 13.9635372,22.5099654 13.92179,21.9229761 C13.913882,21.8113404 13.9183571,21.6987872 13.9183571,21.5866622 C13.9182345,15.847 13.9182345,10.1073378 13.9182345,4.36761436 L13.9182345,3.92798404 Z" id="Fill-1"></path>
            <path d="M15.487727,28.1662814 C11.3799094,28.166215 7.27202828,28.1676099 3.16414713,28.1655507 C1.60747705,28.16482 0.436972951,27.2543973 0.093304918,25.7741135 C0.0388643443,25.5395664 0.00678442623,25.2932621 0.00557745902,25.0522053 C-0.00217254098,23.4912814 -0.000393852459,21.9302911 0.00233770492,20.3693671 C0.00329057377,19.8241498 0.219909426,19.4020845 0.703013934,19.1687331 C1.16026393,18.947936 1.59420041,19.024657 1.97693607,19.3597717 C2.29144631,19.6350374 2.39626189,20.0081473 2.39537254,20.4273563 C2.39225984,21.9219215 2.39353033,23.4164867 2.39467377,24.9109855 C2.39505492,25.4916075 2.58143607,25.6877609 3.13556107,25.6877609 C11.3724135,25.6882923 19.6093295,25.6882923 27.846182,25.6877609 C28.3986553,25.6876944 28.586307,25.4897476 28.5867516,24.9093913 C28.5880221,23.4037995 28.5842742,21.8981413 28.5887844,20.3925495 C28.5908807,19.7274348 28.9658664,19.2183527 29.5215795,19.1007138 C30.244807,18.9476039 30.9473254,19.434035 30.9600939,20.2073563 C30.9891881,21.9658949 31.0183459,23.7299469 30.9174053,25.4836365 C30.8345057,26.9228696 29.6277926,28.0341618 28.2553439,28.1466196 C28.0551779,28.1630266 27.8534873,28.1654843 27.652559,28.1654843 C23.5975939,28.1665471 19.5426922,28.1662814 15.487727,28.1662814" id="Fill-4"></path>
        </g>
        <g id="fleche" transform="translate(112.000000, 167.500000) rotate(-90.000000) translate(-112.000000, -167.500000) translate(99.500000, 146.500000)" fill="#FFFFFF">
            <path d="M33.5,21.1514714 C33.5,20.5329806 32.9977076,20.031017 32.3788115,20.031017 L-4.82390334,20.031017 L4.80149959,10.4124757 C5.01957074,10.1939871 5.12944721,9.90715074 5.12944721,9.6203144 C5.12944721,9.33347806 5.01957074,9.04664172 4.80149959,8.8281531 C4.3631149,8.39061563 3.65340261,8.39061563 3.21557851,8.8281531 L-8.17121148,20.2074886 C-8.60959617,20.6444658 -8.60959617,21.3548339 -8.17121148,21.7918112 L3.21613911,33.1722671 C3.65340261,33.6092443 4.3631149,33.6092443 4.80206018,33.1722671 C5.23932368,32.7347296 5.23932368,32.0243615 4.80206018,31.5873842 L-4.52006126,22.2719259 L32.3788115,22.2719259 C32.9977076,22.2719259 33.5,21.7699623 33.5,21.1514714" id="Fill-1" transform="translate(12.500000, 21.000000) rotate(-90.000000) translate(-12.500000, -21.000000) "></path>
        </g>
    </g>
</svg>